<?xml version="1.0" encoding="utf-8"?>
<!-- Generator: Adobe Illustrator 16.0.3, SVG Export Plug-In . SVG Version: 6.00 Build 0)  -->
<!DOCTYPE svg PUBLIC "-//W3C//DTD SVG 1.1//EN" "http://www.w3.org/Graphics/SVG/1.1/DTD/svg11.dtd">
<svg version="1.1" id="Camada_1" xmlns="http://www.w3.org/2000/svg" xmlns:xlink="http://www.w3.org/1999/xlink" x="0px" y="0px"
	 width="268.219px" height="77.632px" viewBox="0 0 268.219 77.632" enable-background="new 0 0 268.219 77.632"
	 xml:space="preserve">
<g>
	<g enable-background="new    ">
		<path fill="#2A2522" d="M68.448,53.628V40.524h2.782v13.104H68.448z"/>
	</g>
	<g enable-background="new    ">
		<path fill="#2A2522" d="M86.222,53.628h-3.54l-5.708-9.914h-0.082c0.113,1.75,0.17,3,0.17,3.747v6.167h-2.486V40.524h3.51
			l5.702,9.814h0.063c-0.09-1.703-0.135-2.907-0.135-3.613v-6.201h2.505V53.628z"/>
		<path fill="#2A2522" d="M97.273,49.99c0,1.182-0.425,2.114-1.279,2.796c-0.853,0.683-2.041,1.021-3.56,1.021
			c-1.4,0-2.639-0.262-3.718-0.789v-2.582c0.887,0.396,1.636,0.673,2.25,0.834c0.613,0.161,1.174,0.242,1.684,0.242
			c0.61,0,1.079-0.116,1.404-0.348c0.327-0.233,0.49-0.579,0.49-1.041c0-0.256-0.072-0.485-0.215-0.684
			c-0.145-0.201-0.354-0.394-0.633-0.579s-0.846-0.48-1.702-0.889c-0.801-0.377-1.404-0.736-1.805-1.084
			c-0.401-0.347-0.721-0.75-0.959-1.21c-0.241-0.46-0.359-0.996-0.359-1.612c0-1.161,0.393-2.072,1.18-2.734
			c0.788-0.662,1.874-0.995,3.264-0.995c0.683,0,1.334,0.08,1.953,0.241c0.62,0.161,1.267,0.39,1.944,0.682l-0.898,2.159
			c-0.701-0.286-1.28-0.485-1.738-0.601c-0.457-0.111-0.908-0.17-1.351-0.17c-0.528,0-0.931,0.123-1.211,0.368
			c-0.282,0.244-0.423,0.563-0.423,0.958c0,0.246,0.056,0.459,0.169,0.642c0.115,0.183,0.295,0.359,0.543,0.529
			c0.249,0.171,0.836,0.476,1.764,0.918c1.228,0.587,2.068,1.174,2.523,1.763C97.046,48.412,97.273,49.135,97.273,49.99z"/>
	</g>
	<g enable-background="new    ">
		<path fill="#2A2522" d="M104.756,53.628h-2.784V42.836h-3.564v-2.313h9.912v2.313h-3.564V53.628z"/>
		<path fill="#2A2522" d="M110.342,53.628V40.524h2.781v13.104H110.342z"/>
		<path fill="#2A2522" d="M121.491,53.628h-2.783V42.836h-3.564v-2.313h9.912v2.313h-3.564V53.628z"/>
	</g>
	<g enable-background="new    ">
		<path fill="#2A2522" d="M137.774,40.524v8.479c0,0.967-0.216,1.815-0.649,2.544c-0.437,0.729-1.062,1.287-1.882,1.678
			c-0.819,0.387-1.791,0.581-2.909,0.581c-1.688,0-2.999-0.432-3.932-1.295c-0.934-0.862-1.4-2.044-1.4-3.544v-8.443h2.774v8.021
			c0,1.011,0.203,1.75,0.611,2.224c0.408,0.471,1.081,0.706,2.021,0.706c0.908,0,1.569-0.235,1.98-0.712
			c0.409-0.474,0.615-1.22,0.615-2.236v-8.003H137.774L137.774,40.524z"/>
	</g>
	<g enable-background="new    ">
		<path fill="#2A2522" d="M146.094,53.628h-2.784V42.836h-3.565v-2.313h9.913v2.313h-3.564V53.628z"/>
	</g>
	<g enable-background="new    ">
		<path fill="#2A2522" d="M163.64,47.058c0,2.169-0.539,3.836-1.615,5.002c-1.078,1.166-2.623,1.747-4.633,1.747
			s-3.557-0.581-4.634-1.747c-1.078-1.166-1.614-2.84-1.614-5.021s0.539-3.847,1.62-4.996c1.081-1.15,2.629-1.726,4.646-1.726
			c2.016,0,3.561,0.579,4.627,1.738C163.105,43.215,163.64,44.883,163.64,47.058z M154.062,47.058c0,1.464,0.278,2.566,0.834,3.309
			c0.556,0.739,1.388,1.108,2.496,1.108c2.22,0,3.33-1.473,3.33-4.417c0-2.95-1.104-4.428-3.312-4.428
			c-1.107,0-1.943,0.371-2.506,1.115C154.341,44.491,154.062,45.593,154.062,47.058z"/>
		<path fill="#2A2522" d="M173.875,53.628h-2.738V40.524h7.523v2.277h-4.786v3.378h4.454v2.268h-4.454L173.875,53.628
			L173.875,53.628z"/>
	</g>
	<g enable-background="new    ">
		<path fill="#2A2522" d="M188.967,53.628h-7.558V40.524h7.558v2.277h-4.776v2.877h4.446v2.277h-4.446v3.377h4.776V53.628z"/>
		<path fill="#2A2522" d="M202.596,46.951c0,2.157-0.614,3.809-1.844,4.957c-1.23,1.146-3.007,1.721-5.328,1.721h-3.718V40.524
			h4.119c2.145,0,3.808,0.564,4.994,1.692C202.005,43.347,202.596,44.925,202.596,46.951z M199.706,47.022
			c0-2.813-1.245-4.221-3.734-4.221h-1.482v8.531h1.194C198.365,51.333,199.706,49.895,199.706,47.022z"/>
		<path fill="#2A2522" d="M212.877,53.628h-7.559V40.524h7.559v2.277H208.1v2.877h4.445v2.277H208.1v3.377h4.777V53.628z"/>
		<path fill="#2A2522" d="M218.399,48.599v5.029h-2.782V40.524h3.822c1.784,0,3.104,0.324,3.96,0.972
			c0.856,0.649,1.284,1.632,1.284,2.954c0,0.77-0.212,1.457-0.638,2.058c-0.426,0.602-1.026,1.069-1.806,1.411
			c1.977,2.946,3.264,4.849,3.861,5.709h-3.087l-3.135-5.028H218.399L218.399,48.599z M218.399,46.34h0.896
			c0.881,0,1.528-0.146,1.947-0.438c0.42-0.293,0.63-0.754,0.63-1.38c0-0.622-0.214-1.063-0.641-1.328
			c-0.431-0.262-1.093-0.394-1.989-0.394h-0.845L218.399,46.34L218.399,46.34z"/>
	</g>
	<g enable-background="new    ">
		<path fill="#2A2522" d="M235.831,53.628l-0.954-3.12h-4.785l-0.952,3.12h-2.998l4.633-13.158h3.403l4.649,13.158H235.831z
			 M234.212,48.179c-0.88-2.826-1.374-4.425-1.484-4.795c-0.111-0.37-0.191-0.664-0.237-0.88c-0.198,0.764-0.764,2.655-1.696,5.674
			L234.212,48.179L234.212,48.179z"/>
	</g>
	<g enable-background="new    ">
		<path fill="#2A2522" d="M240.531,53.628V40.524h2.783v10.809h5.325v2.295L240.531,53.628L240.531,53.628z"/>
	</g>
	<g enable-background="new    ">
		<path fill="#2A2522" d="M74.236,66.758c0,0.891-0.323,1.584-0.97,2.081c-0.646,0.497-1.522,0.747-2.631,0.747
			c-1.2,0-2.123-0.154-2.769-0.464v-1.135c0.416,0.177,0.867,0.313,1.357,0.415c0.489,0.104,0.975,0.152,1.454,0.152
			c0.786,0,1.376-0.147,1.773-0.445c0.396-0.297,0.595-0.712,0.595-1.239c0-0.351-0.07-0.638-0.211-0.861
			c-0.141-0.225-0.376-0.43-0.707-0.617c-0.331-0.191-0.832-0.403-1.505-0.645c-0.942-0.336-1.615-0.735-2.019-1.195
			c-0.403-0.462-0.605-1.063-0.605-1.805c0-0.779,0.293-1.399,0.88-1.859c0.586-0.461,1.361-0.691,2.325-0.691
			c1.006,0,1.932,0.185,2.776,0.553l-0.367,1.024c-0.835-0.351-1.647-0.526-2.437-0.526c-0.623,0-1.109,0.135-1.46,0.401
			c-0.35,0.269-0.526,0.639-0.526,1.112c0,0.351,0.063,0.64,0.192,0.86c0.13,0.224,0.349,0.429,0.656,0.615
			c0.306,0.187,0.776,0.392,1.408,0.619c1.063,0.376,1.793,0.781,2.192,1.215C74.036,65.505,74.236,66.068,74.236,66.758z"/>
		<path fill="#2A2522" d="M80.8,69.449l-0.228-1.08h-0.056c-0.378,0.475-0.756,0.797-1.133,0.965
			c-0.375,0.168-0.844,0.253-1.409,0.253c-0.752,0-1.342-0.193-1.769-0.579c-0.427-0.389-0.641-0.938-0.641-1.652
			c0-1.53,1.226-2.332,3.677-2.406l1.29-0.044v-0.468c0-0.595-0.129-1.035-0.386-1.316c-0.256-0.284-0.667-0.425-1.229-0.425
			c-0.632,0-1.347,0.191-2.146,0.58l-0.353-0.879c0.374-0.203,0.784-0.363,1.229-0.478c0.446-0.115,0.894-0.173,1.339-0.173
			c0.905,0,1.576,0.202,2.012,0.603c0.436,0.401,0.655,1.043,0.655,1.929v5.171H80.8z M78.203,68.637
			c0.714,0,1.278-0.195,1.686-0.584c0.408-0.394,0.612-0.94,0.612-1.648v-0.684l-1.149,0.05c-0.914,0.031-1.572,0.174-1.977,0.426
			c-0.402,0.251-0.606,0.641-0.606,1.173c0,0.411,0.125,0.729,0.378,0.944C77.399,68.53,77.751,68.637,78.203,68.637z"/>
		<path fill="#2A2522" d="M89.211,69.449v-4.903c0-0.615-0.141-1.077-0.422-1.382c-0.281-0.303-0.722-0.455-1.323-0.455
			c-0.793,0-1.375,0.213-1.745,0.643c-0.367,0.429-0.553,1.136-0.553,2.122v3.976h-1.149v-7.575h0.934l0.188,1.034h0.055
			c0.234-0.372,0.565-0.661,0.991-0.867c0.424-0.204,0.896-0.308,1.417-0.308c0.915,0,1.603,0.223,2.063,0.661
			c0.463,0.439,0.693,1.144,0.693,2.111v4.943H89.211L89.211,69.449z"/>
		<path fill="#2A2522" d="M95.174,68.637c0.203,0,0.401-0.014,0.589-0.041c0.19-0.033,0.339-0.064,0.449-0.096v0.878
			c-0.123,0.06-0.307,0.111-0.55,0.148c-0.242,0.041-0.46,0.06-0.653,0.06c-1.469,0-2.203-0.773-2.203-2.316v-4.506h-1.088v-0.555
			l1.088-0.477l0.484-1.617h0.665v1.758h2.202v0.891h-2.202v4.456c0,0.458,0.108,0.809,0.326,1.053
			C94.498,68.517,94.795,68.637,95.174,68.637z"/>
		<path fill="#2A2522" d="M102.397,69.449l-0.229-1.08h-0.054c-0.379,0.475-0.757,0.797-1.134,0.965
			c-0.375,0.168-0.845,0.253-1.408,0.253c-0.753,0-1.343-0.193-1.771-0.579c-0.427-0.389-0.64-0.938-0.64-1.652
			c0-1.53,1.226-2.332,3.676-2.406l1.289-0.044v-0.468c0-0.595-0.128-1.035-0.385-1.316c-0.256-0.284-0.665-0.425-1.229-0.425
			c-0.632,0-1.347,0.191-2.146,0.58l-0.354-0.879c0.375-0.203,0.786-0.363,1.23-0.478c0.445-0.115,0.892-0.173,1.34-0.173
			c0.904,0,1.575,0.202,2.012,0.603c0.436,0.401,0.652,1.043,0.652,1.929v5.171H102.397z M99.8,68.637
			c0.714,0,1.276-0.195,1.686-0.584c0.409-0.394,0.612-0.94,0.612-1.648v-0.684l-1.149,0.05c-0.914,0.031-1.573,0.174-1.977,0.426
			c-0.403,0.251-0.606,0.641-0.606,1.173c0,0.411,0.125,0.729,0.376,0.944C98.995,68.53,99.347,68.637,99.8,68.637z"/>
		<path fill="#2A2522" d="M113.806,60.247c-1.112,0-1.991,0.37-2.636,1.109c-0.644,0.74-0.965,1.753-0.965,3.037
			c0,1.324,0.31,2.345,0.93,3.065c0.621,0.722,1.507,1.082,2.655,1.082c0.708,0,1.513-0.125,2.418-0.38v1.031
			c-0.702,0.262-1.566,0.394-2.597,0.394c-1.491,0-2.641-0.45-3.452-1.355c-0.811-0.903-1.215-2.186-1.215-3.85
			c0-1.041,0.195-1.953,0.585-2.738c0.391-0.783,0.953-1.386,1.69-1.811c0.737-0.426,1.604-0.637,2.6-0.637
			c1.063,0,1.989,0.193,2.783,0.581l-0.498,1.01C115.339,60.427,114.573,60.247,113.806,60.247z"/>
		<path fill="#2A2522" d="M122.912,69.449l-0.229-1.08h-0.054c-0.379,0.475-0.756,0.797-1.134,0.965
			c-0.375,0.168-0.845,0.253-1.408,0.253c-0.753,0-1.343-0.193-1.77-0.579c-0.427-0.389-0.641-0.938-0.641-1.652
			c0-1.53,1.227-2.332,3.677-2.406l1.289-0.044v-0.468c0-0.595-0.128-1.035-0.384-1.316c-0.257-0.284-0.666-0.425-1.23-0.425
			c-0.631,0-1.347,0.191-2.147,0.58l-0.353-0.879c0.375-0.203,0.785-0.363,1.229-0.478c0.446-0.115,0.893-0.173,1.341-0.173
			c0.904,0,1.575,0.202,2.011,0.603c0.436,0.401,0.653,1.043,0.653,1.929v5.171H122.912z M120.315,68.637
			c0.716,0,1.277-0.195,1.687-0.584c0.408-0.394,0.612-0.94,0.612-1.648v-0.684l-1.15,0.05c-0.913,0.031-1.572,0.174-1.976,0.426
			c-0.403,0.251-0.606,0.641-0.606,1.173c0,0.411,0.125,0.729,0.377,0.944C119.51,68.53,119.863,68.637,120.315,68.637z"/>
		<path fill="#2A2522" d="M128.583,68.637c0.203,0,0.4-0.014,0.589-0.041c0.189-0.033,0.339-0.064,0.449-0.096v0.878
			c-0.124,0.06-0.308,0.111-0.55,0.148c-0.243,0.041-0.461,0.06-0.654,0.06c-1.469,0-2.203-0.773-2.203-2.316v-4.506h-1.087v-0.555
			l1.087-0.477l0.485-1.617h0.665v1.758h2.202v0.891h-2.202v4.456c0,0.458,0.108,0.809,0.326,1.053
			C127.907,68.517,128.203,68.637,128.583,68.637z"/>
		<path fill="#2A2522" d="M135.805,69.449l-0.229-1.08h-0.054c-0.379,0.475-0.757,0.797-1.133,0.965s-0.846,0.253-1.409,0.253
			c-0.754,0-1.344-0.193-1.77-0.579c-0.428-0.389-0.642-0.938-0.642-1.652c0-1.53,1.227-2.332,3.677-2.406l1.289-0.044v-0.468
			c0-0.595-0.126-1.035-0.384-1.316c-0.256-0.284-0.666-0.425-1.229-0.425c-0.632,0-1.346,0.191-2.146,0.58l-0.354-0.879
			c0.374-0.203,0.784-0.363,1.229-0.478c0.445-0.115,0.892-0.173,1.339-0.173c0.906,0,1.574,0.202,2.011,0.603
			c0.437,0.401,0.655,1.043,0.655,1.929v5.171H135.805z M133.208,68.637c0.714,0,1.275-0.195,1.686-0.584
			c0.408-0.394,0.613-0.94,0.613-1.648v-0.684l-1.15,0.05c-0.914,0.031-1.572,0.174-1.978,0.426
			c-0.402,0.251-0.605,0.641-0.605,1.173c0,0.411,0.125,0.729,0.376,0.944C132.403,68.53,132.756,68.637,133.208,68.637z"/>
		<path fill="#2A2522" d="M142.487,61.733c0.336,0,0.639,0.028,0.908,0.083l-0.159,1.064c-0.314-0.068-0.593-0.102-0.831-0.102
			c-0.615,0-1.139,0.248-1.576,0.745c-0.436,0.499-0.654,1.117-0.654,1.859v4.067h-1.15v-7.577h0.949l0.13,1.402h0.055
			c0.281-0.495,0.621-0.874,1.019-1.141C141.574,61.868,142.01,61.733,142.487,61.733z"/>
		<path fill="#2A2522" d="M144.714,59.82c0-0.264,0.065-0.455,0.195-0.577c0.129-0.121,0.289-0.186,0.482-0.186
			c0.187,0,0.346,0.064,0.479,0.188c0.135,0.127,0.2,0.317,0.2,0.575c0,0.26-0.065,0.451-0.2,0.578
			c-0.134,0.125-0.294,0.188-0.479,0.188c-0.193,0-0.354-0.063-0.482-0.188C144.78,60.27,144.714,60.078,144.714,59.82z
			 M145.963,69.449h-1.151v-7.575h1.151V69.449z"/>
		<path fill="#2A2522" d="M153.592,69.449v-4.903c0-0.615-0.141-1.077-0.422-1.382c-0.281-0.303-0.724-0.455-1.323-0.455
			c-0.793,0-1.375,0.213-1.744,0.643c-0.368,0.429-0.554,1.136-0.554,2.122v3.976h-1.15v-7.575h0.935l0.188,1.034h0.055
			c0.234-0.372,0.566-0.661,0.992-0.867c0.423-0.204,0.896-0.308,1.418-0.308c0.914,0,1.602,0.223,2.063,0.661
			c0.461,0.439,0.692,1.144,0.692,2.111v4.943H153.592L153.592,69.449z"/>
		<path fill="#2A2522" d="M161.77,69.449l-0.227-1.08h-0.058c-0.377,0.475-0.755,0.797-1.132,0.965
			c-0.375,0.168-0.846,0.253-1.409,0.253c-0.752,0-1.342-0.193-1.77-0.579c-0.426-0.389-0.64-0.938-0.64-1.652
			c0-1.53,1.226-2.332,3.677-2.406l1.288-0.044v-0.468c0-0.595-0.126-1.035-0.385-1.316c-0.256-0.284-0.667-0.425-1.229-0.425
			c-0.631,0-1.347,0.191-2.146,0.58l-0.353-0.879c0.373-0.203,0.783-0.363,1.228-0.478c0.446-0.115,0.893-0.173,1.341-0.173
			c0.905,0,1.576,0.202,2.013,0.603c0.436,0.401,0.651,1.043,0.651,1.929v5.171H161.77z M159.174,68.637
			c0.714,0,1.275-0.195,1.686-0.584c0.407-0.394,0.612-0.94,0.612-1.648v-0.684l-1.151,0.05c-0.912,0.031-1.571,0.174-1.976,0.426
			c-0.402,0.251-0.605,0.641-0.605,1.173c0,0.411,0.124,0.729,0.377,0.944C158.368,68.53,158.722,68.637,159.174,68.637z"/>
	</g>
	<path fill="#389936" d="M43.414,20.785c0,0.72-0.6,1.319-1.32,1.319H31.538c-0.72,0-1.32-0.599-1.32-1.319V10.228
		c0-0.72,0.6-1.32,1.32-1.32h10.557c0.72,0,1.32,0.6,1.32,1.32V20.785z"/>
	<path fill="#389936" d="M59.251,20.785c0,0.72-0.601,1.319-1.319,1.319H47.374c-0.721,0-1.319-0.599-1.319-1.319V10.228
		c0-0.72,0.599-1.32,1.319-1.32h10.558c0.719,0,1.319,0.6,1.319,1.32V20.785z"/>
	<path fill="#389936" d="M59.251,52.335c0,0.721-0.601,1.32-1.319,1.32H47.374c-0.721,0-1.319-0.6-1.319-1.32V41.779
		c0-0.72,0.599-1.32,1.319-1.32h10.558c0.719,0,1.319,0.601,1.319,1.32V52.335z"/>
	<path fill="#389936" d="M27.58,36.5c0,0.72-0.601,1.319-1.32,1.319H15.701c-0.718,0-1.319-0.599-1.319-1.319V25.943
		c0-0.72,0.601-1.32,1.319-1.32H26.26c0.719,0,1.32,0.6,1.32,1.32V36.5z"/>
	<path fill="#389936" d="M43.414,36.5c0,0.72-0.6,1.319-1.32,1.319H31.538c-0.72,0-1.32-0.599-1.32-1.319V25.943
		c0-0.72,0.6-1.32,1.32-1.32h10.557c0.72,0,1.32,0.6,1.32,1.32V36.5z"/>
	<path fill="#389936" d="M27.58,52.335c0,0.721-0.601,1.32-1.32,1.32H15.701c-0.718,0-1.319-0.6-1.319-1.32V41.779
		c0-0.72,0.601-1.32,1.319-1.32H26.26c0.719,0,1.32,0.601,1.32,1.32V52.335z"/>
	<path fill="#389936" d="M43.414,52.335c0,0.721-0.6,1.32-1.32,1.32H31.538c-0.72,0-1.32-0.6-1.32-1.32V41.779
		c0-0.72,0.6-1.32,1.32-1.32h10.557c0.72,0,1.32,0.601,1.32,1.32V52.335z"/>
	<path fill="#389936" d="M27.58,68.172c0,0.719-0.601,1.319-1.32,1.319H15.701c-0.718,0-1.319-0.601-1.319-1.319V57.616
		c0-0.72,0.601-1.32,1.319-1.32H26.26c0.719,0,1.32,0.601,1.32,1.32V68.172z"/>
	<path fill="#389936" d="M43.414,68.172c0,0.719-0.6,1.319-1.32,1.319H31.538c-0.72,0-1.32-0.601-1.32-1.319V57.616
		c0-0.72,0.6-1.32,1.32-1.32h10.557c0.72,0,1.32,0.601,1.32,1.32V68.172z"/>
	<path fill="#CA1517" d="M28.298,15.386c0,3.958-3.238,7.198-7.197,7.198c-3.958,0-7.197-3.24-7.197-7.198
		c0-3.959,3.239-7.197,7.197-7.197S28.298,11.427,28.298,15.386"/>
</g>
</svg>
